# xmcd CD database file
#
# Track frame offsets:
#	200
#	29975
#	57425
#	86255
#	104975
#	170900
#	175250
#	187250
#	191000
#
# Disc length: 3137 seconds
#
# Revision: 0
# Processed by: cddbd v1.5.1PL2 Copyright (c) Steve Scherf et al.
# Submitted via: CDex 1.51
#
DISCID=8d0c3f09
DTITLE=Grewe, Georg - flavours, fragments
DYEAR=1994
DGENRE=Jazz
TTITLE0=flavours b
TTITLE1=fragments 7
TTITLE2=fragments 1
TTITLE3=fragments 3
TTITLE4=flavours 8
TTITLE5=fragments 2
TTITLE6=fragments 4+5
TTITLE7=fragments 6
TTITLE8=flavours 8
EXTD=YEAR: 1994
EXTT0=
EXTT1=
EXTT2=
EXTT3=
EXTT4=
EXTT5=
EXTT6=
EXTT7=
EXTT8=
PLAYORDER=
